# xmcd
#
# Track frame offsets:
#	150
#	18907
#	27263
#	43031
#	59329
#	78518
#	97755
#	107456
#	129967
#	143130
#	154976
#	166788
#	182055
#	196632
#	210094
#	227332
#
# Disc length: 3216 seconds
#
# Revision: 0
# Processed by: cddbd v1.5.1PL2 Copyright (c) Steve Scherf et al.
# Submitted via: dBpowerAMP V4.0
#
DISCID=b50c8e10
DTITLE=Angel Montgomery - Lonesome Town
DYEAR=2004
DGENRE=Country
TTITLE0=Jesse
TTITLE1=Stood Up
TTITLE2=Lonesome Town
TTITLE3=Tijuana Holiday
TTITLE4=Don't
TTITLE5=A Change Is Gonna Come
TTITLE6=Blue Of Kentucky
TTITLE7=Before We Say Goodbye
TTITLE8=Please Help Me I'm Falling
TTITLE9=I'm Left Your Right She's Gone
TTITLE10=Hello Darling
TTITLE11=I Can't Let Go
TTITLE12=I Think It's Gonna Rain Today
TTITLE13=Let The Candle Shine Tonight
TTITLE14=Gotta Serve Somebody
TTITLE15=4&20
EXTD=
EXTT0=
EXTT1=
EXTT2=
EXTT3=
EXTT4=
EXTT5=
EXTT6=
EXTT7=
EXTT8=
EXTT9=
EXTT10=
EXTT11=
EXTT12=
EXTT13=
EXTT14=
EXTT15=
PLAYORDER=
